<svg width="24" height="24" viewBox="0 0 24 24" fill="none" xmlns="http://www.w3.org/2000/svg">
<g id="Frame">
<path id="Vector" d="M2.76083 12.2435C2.75399 12.196 2.71998 12.1633 2.67808 12.1633C2.63596 12.1633 2.60111 12.197 2.59533 12.2435L2.3999 14.029L2.59533 15.7751C2.6009 15.8219 2.63574 15.8557 2.67808 15.8557C2.71977 15.8557 2.75377 15.8228 2.76062 15.7755L2.98299 14.029L2.76083 12.2435Z" fill="white"/>
<path id="Vector_2" d="M5.84064 10.5964C5.76046 10.5964 5.69418 10.662 5.69033 10.7454L5.53467 14.0305L5.69033 16.1535C5.69439 16.2365 5.76046 16.3019 5.84064 16.3019C5.92039 16.3019 5.98646 16.2363 5.99117 16.1531V16.1537L6.16714 14.0305L5.99117 10.7454C5.98647 10.662 5.9204 10.5964 5.84064 10.5964Z" fill="white"/>
<path id="Vector_3" d="M4.24666 11.7382C4.18509 11.7382 4.13484 11.7873 4.12992 11.853L3.95459 14.0296L4.12992 16.1355C4.13463 16.2008 4.18509 16.2499 4.24666 16.2499C4.3076 16.2499 4.35785 16.2008 4.3632 16.1355L4.56247 14.0296L4.3632 11.8526C4.35785 11.7873 4.3076 11.7382 4.24666 11.7382Z" fill="white"/>
<path id="Vector_4" d="M7.46053 16.3017C7.55996 16.3017 7.64078 16.2215 7.64485 16.1188L7.79751 14.0316L7.64506 9.65791C7.64099 9.55528 7.56017 9.4751 7.46074 9.4751C7.36046 9.4751 7.27942 9.55549 7.27622 9.65813L7.14087 14.0313L7.27622 16.1195C7.27943 16.2213 7.36046 16.3017 7.46053 16.3017Z" fill="white"/>
<path id="Vector_5" d="M10.7769 16.3115C10.9137 16.3115 11.0266 16.1989 11.0292 16.0603L11.1357 14.0329L11.0292 8.98165C11.0269 8.8433 10.9137 8.73041 10.7769 8.73041C10.6398 8.73041 10.5267 8.84309 10.5246 8.98186L10.4294 14.0312C10.4294 14.0344 10.5246 16.0616 10.5246 16.0616C10.5267 16.1989 10.6401 16.3115 10.7769 16.3115Z" fill="white"/>
<path id="Vector_6" d="M9.10619 16.3036C9.22529 16.3036 9.32129 16.208 9.3245 16.0862V16.0877L9.45408 14.032L9.32429 9.62673C9.32108 9.50485 9.22508 9.40948 9.10598 9.40948C8.98603 9.40948 8.89003 9.50485 8.88747 9.62673L8.77222 14.0322L8.88768 16.0874C8.89024 16.208 8.98624 16.3036 9.10619 16.3036Z" fill="white"/>
<path id="Vector_7" d="M19.1548 11.4258C18.8197 11.4258 18.5001 11.4936 18.2088 11.6156C18.0143 9.41161 16.166 7.68268 13.9115 7.68268C13.3599 7.68268 12.8221 7.7913 12.3472 7.97497C12.1627 8.04639 12.1135 8.11993 12.1118 8.26255L12.1118 16.0241C12.1137 16.1738 12.2298 16.2985 12.3759 16.3132C12.3821 16.3139 19.1109 16.3173 19.1546 16.3173C20.505 16.3173 21.6 15.2223 21.6 13.8716C21.6 12.521 20.5052 11.4258 19.1548 11.4258Z" fill="white"/>
</g>
</svg>
