<svg width="16" height="16" viewBox="0 0 16 16" fill="none" xmlns="http://www.w3.org/2000/svg">
<path d="M9.33301 4.00001V2.66668L6.66634 2.66668L6.66634 4.00001H9.33301ZM2.66634 5.33334L2.66634 12.6667L13.333 12.6667L13.333 5.33334L2.66634 5.33334ZM13.333 4.00001C14.073 4.00001 14.6663 4.59334 14.6663 5.33334L14.6663 12.6667C14.6663 13.4067 14.073 14 13.333 14L2.66634 14C1.92634 14 1.33301 13.4067 1.33301 12.6667L1.33967 5.33334C1.33967 4.59334 1.92634 4.00001 2.66634 4.00001L5.33301 4.00001V2.66668C5.33301 1.92668 5.92634 1.33334 6.66634 1.33334L9.33301 1.33334C10.073 1.33334 10.6663 1.92668 10.6663 2.66668V4.00001L13.333 4.00001Z" fill="#0EA776"/>
</svg>
