<svg width="28" height="28" viewBox="0 0 28 28" fill="none" xmlns="http://www.w3.org/2000/svg">
<rect width="28" height="28" rx="4" fill="#0D78C8"/>
<path d="M7.0705 14.1826C7.06537 14.147 7.03987 14.1224 7.00844 14.1224C6.97685 14.1224 6.95071 14.1478 6.94638 14.1826L6.7998 15.5218L6.94638 16.8313C6.95055 16.8664 6.97669 16.8918 7.00844 16.8918C7.03971 16.8918 7.06521 16.8671 7.07034 16.8316L7.23712 15.5218L7.0705 14.1826Z" fill="white"/>
<path d="M9.38085 12.9473C9.32071 12.9473 9.271 12.9965 9.26812 13.0591L9.15137 15.5229L9.26811 17.1151C9.27116 17.1774 9.32071 17.2264 9.38084 17.2264C9.44066 17.2264 9.49021 17.1772 9.49374 17.1148V17.1153L9.62572 15.5229L9.49374 13.0591C9.49022 12.9965 9.44066 12.9473 9.38085 12.9473Z" fill="white"/>
<path d="M8.18488 13.8036C8.13869 13.8036 8.101 13.8405 8.09732 13.8897L7.96582 15.5222L8.09732 17.1017C8.10085 17.1506 8.13869 17.1874 8.18488 17.1874C8.23058 17.1874 8.26827 17.1506 8.27227 17.1017L8.42173 15.5222L8.27227 13.8894C8.26827 13.8405 8.23058 13.8036 8.18488 13.8036Z" fill="white"/>
<path d="M10.5952 17.2263C10.6698 17.2263 10.7304 17.1661 10.7335 17.0892L10.8479 15.5237L10.7336 12.2435C10.7306 12.1665 10.6699 12.1064 10.5954 12.1064C10.5202 12.1064 10.4594 12.1666 10.457 12.2436L10.3555 15.5235L10.457 17.0896C10.4594 17.166 10.5202 17.2263 10.5952 17.2263Z" fill="white"/>
<path d="M13.0829 17.2336C13.1855 17.2336 13.2702 17.1491 13.2721 17.0452L13.3519 15.5246L13.2721 11.7362C13.2703 11.6325 13.1855 11.5478 13.0829 11.5478C12.9801 11.5478 12.8952 11.6323 12.8936 11.7364L12.8223 15.5234C12.8223 15.5258 12.8936 17.0462 12.8936 17.0462C12.8952 17.1491 12.9802 17.2336 13.0829 17.2336Z" fill="white"/>
<path d="M11.8296 17.2277C11.9189 17.2277 11.9909 17.156 11.9933 17.0646V17.0657L12.0905 15.524L11.9932 12.22C11.9908 12.1286 11.9188 12.0571 11.8294 12.0571C11.7395 12.0571 11.6675 12.1286 11.6655 12.22L11.5791 15.5242L11.6657 17.0656C11.6676 17.156 11.7396 17.2277 11.8296 17.2277Z" fill="white"/>
<path d="M19.3662 13.5693C19.1149 13.5693 18.8752 13.6202 18.6567 13.7118C18.5108 12.0587 17.1246 10.762 15.4338 10.762C15.02 10.762 14.6167 10.8435 14.2605 10.9812C14.1222 11.0348 14.0853 11.09 14.084 11.1969L14.084 17.0181C14.0854 17.1304 14.1725 17.2239 14.282 17.2349C14.2867 17.2354 19.3333 17.238 19.366 17.238C20.3789 17.238 21.2001 16.4168 21.2001 15.4037C21.2001 14.3907 20.3791 13.5693 19.3662 13.5693Z" fill="white"/>
</svg>
