<svg width="10" height="10" viewBox="0 0 10 10" fill="none" xmlns="http://www.w3.org/2000/svg">
<path d="M7.12 2.875C6.84212 2.59576 6.51175 2.37425 6.1479 2.22323C5.78406 2.0722 5.39394 1.99463 5 1.99499V4.995L2.88 7.115C4.05 8.285 5.95 8.285 7.125 7.115C7.40345 6.83647 7.62423 6.50577 7.77471 6.14181C7.92518 5.77786 8.0024 5.38779 8.00193 4.99396C8.00147 4.60012 7.92333 4.21024 7.772 3.84664C7.62067 3.48304 7.3991 3.15286 7.12 2.875ZM5 -0.00500488C2.24 -0.00500488 0 2.235 0 4.995C0 7.755 2.24 9.995 5 9.995C7.76 9.995 10 7.755 10 4.995C10 2.235 7.76 -0.00500488 5 -0.00500488ZM5 8.995C2.79 8.995 1 7.205 1 4.995C1 2.785 2.79 0.994995 5 0.994995C7.21 0.994995 9 2.785 9 4.995C9 7.205 7.21 8.995 5 8.995Z" fill="#6C6CFF"/>
</svg>
