<svg width="20" height="20" viewBox="0 0 20 20" fill="none" xmlns="http://www.w3.org/2000/svg">
<path d="M18 5.05C17.4 5.3 16.8 5.5 16.1 5.55C16.8 5.15 17.3 4.5 17.55 3.75C16.9 4.15 16.2 4.4 15.45 4.55C14.85 3.9 14 3.5 13.1 3.5C11.3 3.5 9.79995 4.95 9.79995 6.8C9.79995 7.05 9.84995 7.3 9.89995 7.55C7.14995 7.4 4.74995 6.1 3.09995 4.1C2.79995 4.6 2.64995 5.15 2.64995 5.75C2.64995 6.9 3.24995 7.9 4.09995 8.5C3.54995 8.5 3.04995 8.35 2.59995 8.1V8.15C2.59995 9.75 3.74995 11.05 5.24995 11.35C4.94995 11.4 4.69995 11.45 4.39995 11.45C4.19995 11.45 3.99995 11.45 3.79995 11.4C4.19995 12.7 5.44995 13.65 6.84995 13.7C5.74995 14.6 4.29995 15.1 2.74995 15.1C2.49995 15.1 2.19995 15.1 1.94995 15.05C3.44995 15.95 5.19995 16.5 7.04995 16.5C13.1 16.5 16.4 11.5 16.4 7.15C16.4 7 16.4 6.85 16.4 6.75C17 6.25 17.55 5.7 18 5.05Z" fill="#323842"/>
</svg>
